{
    "asset" : {
        "generator" : "Khronos glTF Blender I/O v3.4.50",
        "version" : "2.0"
    },
    "scene" : 0,
    "scenes" : [
        {
            "name" : "Scene",
            "nodes" : [
                0
            ]
        }
    ],
    "nodes" : [
        {
            "mesh" : 0,
            "name" : "Einkaufswagen"
        }
    ],
    "materials" : [
        {
            "doubleSided" : true,
            "name" : "Gum",
            "pbrMetallicRoughness" : {
                "baseColorFactor" : [
                    0.008075856603682041,
                    0.008075856603682041,
                    0.008075856603682041,
                    1
                ],
                "metallicFactor" : 0,
                "roughnessFactor" : 0.8083333373069763
            }
        },
        {
            "doubleSided" : true,
            "name" : "Griff",
            "pbrMetallicRoughness" : {
                "baseColorFactor" : [
                    0.8000000715255737,
                    0.2468610554933548,
                    0.011359923519194126,
                    1
                ],
                "metallicFactor" : 0,
                "roughnessFactor" : 0.7833333015441895
            }
        },
        {
            "doubleSided" : true,
            "name" : "Chrome",
            "pbrMetallicRoughness" : {
                "baseColorFactor" : [
                    0.800000011920929,
                    0.800000011920929,
                    0.800000011920929,
                    1
                ],
                "roughnessFactor" : 0.12548211216926575
            }
        }
    ],
    "meshes" : [
        {
            "name" : "BezierCurve.001",
            "primitives" : [
                {
                    "attributes" : {
                        "POSITION" : 0,
                        "TEXCOORD_0" : 1,
                        "NORMAL" : 2
                    },
                    "indices" : 3,
                    "material" : 0
                },
                {
                    "attributes" : {
                        "POSITION" : 4,
                        "TEXCOORD_0" : 5,
                        "NORMAL" : 6
                    },
                    "indices" : 7,
                    "material" : 1
                },
                {
                    "attributes" : {
                        "POSITION" : 8,
                        "TEXCOORD_0" : 9,
                        "NORMAL" : 10
                    },
                    "indices" : 11,
                    "material" : 2
                }
            ]
        }
    ],
    "accessors" : [
        {
            "bufferView" : 0,
            "componentType" : 5126,
            "count" : 388,
            "max" : [
                0.6587116718292236,
                0.3351891338825226,
                1.0845558643341064
            ],
            "min" : [
                -0.6587116718292236,
                0,
                -1.0048894882202148
            ],
            "type" : "VEC3"
        },
        {
            "bufferView" : 1,
            "componentType" : 5126,
            "count" : 388,
            "type" : "VEC2"
        },
        {
            "bufferView" : 2,
            "componentType" : 5126,
            "count" : 388,
            "type" : "VEC3"
        },
        {
            "bufferView" : 3,
            "componentType" : 5123,
            "count" : 1920,
            "type" : "SCALAR"
        },
        {
            "bufferView" : 4,
            "componentType" : 5126,
            "count" : 46,
            "max" : [
                0.5741316676139832,
                2.061170816421509,
                -0.5814169049263
            ],
            "min" : [
                -0.5741316676139832,
                1.889167070388794,
                -0.8889827132225037
            ],
            "type" : "VEC3"
        },
        {
            "bufferView" : 5,
            "componentType" : 5126,
            "count" : 46,
            "type" : "VEC2"
        },
        {
            "bufferView" : 6,
            "componentType" : 5126,
            "count" : 46,
            "type" : "VEC3"
        },
        {
            "bufferView" : 7,
            "componentType" : 5123,
            "count" : 210,
            "type" : "SCALAR"
        },
        {
            "bufferView" : 8,
            "componentType" : 5126,
            "count" : 1048,
            "max" : [
                0.6124060750007629,
                1.9798780679702759,
                1.1251490116119385
            ],
            "min" : [
                -0.6124061346054077,
                0.03900577872991562,
                -0.9658836722373962
            ],
            "type" : "VEC3"
        },
        {
            "bufferView" : 9,
            "componentType" : 5126,
            "count" : 1048,
            "type" : "VEC2"
        },
        {
            "bufferView" : 10,
            "componentType" : 5126,
            "count" : 1048,
            "type" : "VEC3"
        },
        {
            "bufferView" : 11,
            "componentType" : 5123,
            "count" : 4530,
            "type" : "SCALAR"
        }
    ],
    "bufferViews" : [
        {
            "buffer" : 0,
            "byteLength" : 4656,
            "byteOffset" : 0,
            "target" : 34962
        },
        {
            "buffer" : 0,
            "byteLength" : 3104,
            "byteOffset" : 4656,
            "target" : 34962
        },
        {
            "buffer" : 0,
            "byteLength" : 4656,
            "byteOffset" : 7760,
            "target" : 34962
        },
        {
            "buffer" : 0,
            "byteLength" : 3840,
            "byteOffset" : 12416,
            "target" : 34963
        },
        {
            "buffer" : 0,
            "byteLength" : 552,
            "byteOffset" : 16256,
            "target" : 34962
        },
        {
            "buffer" : 0,
            "byteLength" : 368,
            "byteOffset" : 16808,
            "target" : 34962
        },
        {
            "buffer" : 0,
            "byteLength" : 552,
            "byteOffset" : 17176,
            "target" : 34962
        },
        {
            "buffer" : 0,
            "byteLength" : 420,
            "byteOffset" : 17728,
            "target" : 34963
        },
        {
            "buffer" : 0,
            "byteLength" : 12576,
            "byteOffset" : 18148,
            "target" : 34962
        },
        {
            "buffer" : 0,
            "byteLength" : 8384,
            "byteOffset" : 30724,
            "target" : 34962
        },
        {
            "buffer" : 0,
            "byteLength" : 12576,
            "byteOffset" : 39108,
            "target" : 34962
        },
        {
            "buffer" : 0,
            "byteLength" : 9060,
            "byteOffset" : 51684,
            "target" : 34963
        }
    ],
    "buffers" : [
        {
            "byteLength" : 60744,
            "uri" : "data:application/octet-stream;base64,"
        }
    ]
}
